<svg xmlns="http://www.w3.org/2000/svg" viewBox="0 0 256 256">
  <defs>
    <linearGradient id="bg" x1="0" y1="0" x2="1" y2="1">
      <stop offset="0" stop-color="#f472b6"/>
      <stop offset="1" stop-color="#db2777"/>
    </linearGradient>
  </defs>
  <rect x="8" y="8" width="240" height="240" rx="56" fill="url(#bg)"/>
  <g id="pig" transform="translate(36 44) scale(7.667)" fill="none" stroke="#ffffff" stroke-width="2" stroke-linecap="round" stroke-linejoin="round">
    <path fill="#ffffff" fill-opacity="0.22" d="M11 17h3v2a1 1 0 0 0 1 1h2a1 1 0 0 0 1-1v-3a3.16 3.16 0 0 0 2-2h1a1 1 0 0 0 1-1v-2a1 1 0 0 0-1-1h-1a5 5 0 0 0-2-4V3a4 4 0 0 0-3.2 1.6l-.3.4H11a6 6 0 0 0-6 6v1a5 5 0 0 0 2 4v3a1 1 0 0 0 1 1h2a1 1 0 0 0 1-1z"/>
    <path d="M16 10h.01"/>
    <path d="M2 8v1a2 2 0 0 0 2 2h1"/>
  </g>
</svg>
